<svg width="18" height="18" viewBox="0 0 18 18" fill="none" xmlns="http://www.w3.org/2000/svg">
<path d="M9 15.2025C8.85086 15.2024 8.70789 15.143 8.6025 15.0375L3.3525 9.7875C3.21182 9.64281 3.15903 9.43406 3.214 9.23988C3.26897 9.04571 3.42336 8.89561 3.619 8.84613C3.81464 8.79665 4.02182 8.85531 4.1625 9L9 13.8375L13.8375 9C13.9777 8.84951 14.1889 8.78756 14.3882 8.83846C14.5875 8.88936 14.7431 9.04498 14.794 9.24428C14.8449 9.44358 14.783 9.65477 14.6325 9.795L9.3825 15.045C9.27963 15.1442 9.14287 15.2005 9 15.2025Z" fill="white"/>
<path d="M9 15.195C8.69103 15.191 8.44154 14.9415 8.4375 14.6325V3.3825C8.4375 3.18154 8.54471 2.99584 8.71875 2.89536C8.89279 2.79488 9.10721 2.79488 9.28125 2.89536C9.45529 2.99584 9.5625 3.18154 9.5625 3.3825V14.6325C9.55846 14.9415 9.30897 15.191 9 15.195Z" fill="white"/>
<path d="M8.99997 15.75C8.70171 15.7497 8.41575 15.631 8.20497 15.42L2.95497 10.17C2.51591 9.72886 2.51759 9.01532 2.95872 8.57625C3.39986 8.13719 4.11341 8.13886 4.55247 8.58L8.99997 13.0425L13.44 8.595C13.879 8.15386 14.5926 8.15219 15.0337 8.59125C15.4749 9.03032 15.4765 9.74386 15.0375 10.185L9.78747 15.435C9.57613 15.6387 9.29352 15.7518 8.99997 15.75Z" fill="white"/>
<path d="M9 15.75C8.37868 15.75 7.875 15.2463 7.875 14.625V3.375C7.875 2.75368 8.37868 2.25 9 2.25C9.62132 2.25 10.125 2.75368 10.125 3.375V14.625C10.125 15.2463 9.62132 15.75 9 15.75Z" fill="white"/>
</svg>
