<svg width="30" height="30" viewBox="0 0 30 30" fill="none" xmlns="http://www.w3.org/2000/svg">
<path fill-rule="evenodd" clip-rule="evenodd" d="M14.3429 11.1637L25.4338 14.6788C26.2162 14.9124 26.7902 15.5813 26.9024 16.3901C27.0145 17.1988 26.6443 17.9986 25.955 18.4364L22.0884 20.8606C21.8325 21.0193 21.6167 21.235 21.4581 21.4909L19.0338 25.3576C18.6689 25.9502 18.0207 26.3088 17.3247 26.3031C16.3953 26.3095 15.5699 25.7101 15.2884 24.8243L11.7732 13.7334C11.5435 13.0048 11.7382 12.209 12.2784 11.6688C12.8185 11.1287 13.6144 10.9339 14.3429 11.1637ZM21.0581 19.1879L24.9247 16.7637C24.9654 16.7254 24.9706 16.6627 24.9369 16.6182C24.9247 16.5334 24.8399 16.5334 24.8399 16.5334L13.749 13.0182V13.0909L17.2641 24.1818C17.2765 24.2574 17.3455 24.3105 17.4217 24.3031L19.846 20.4C20.1597 19.9148 20.5728 19.5017 21.0581 19.1879Z" fill="#0072F5"/>
<path d="M7.25195 5.43035C6.90686 5.12169 6.38492 5.12169 6.03983 5.43035C5.74177 5.77942 5.74177 6.2934 6.03983 6.64247L8.46407 9.18792C8.63722 9.35419 8.8665 9.44937 9.10649 9.45459C9.347 9.4518 9.57714 9.35627 9.74892 9.18792C9.94263 9.02303 10.0572 8.78365 10.0641 8.52936C10.0711 8.27507 9.96971 8.02979 9.78528 7.85459L7.25195 5.43035Z" fill="#0072F5"/>
<path d="M12.4278 7.85456C12.6689 7.84822 12.8977 7.7463 13.0636 7.57124C13.2296 7.39619 13.3192 7.16236 13.3127 6.92123V3.39395C13.3127 2.89188 12.9056 2.48486 12.4036 2.48486C11.9015 2.48486 11.4945 2.89188 11.4945 3.39395V6.92123C11.4877 7.17077 11.5839 7.41211 11.7604 7.58863C11.9369 7.76514 12.1783 7.86131 12.4278 7.85456Z" fill="#0072F5"/>
<path d="M15.8095 7.78182C16.0508 7.78296 16.2824 7.68684 16.452 7.51516L18.9489 5.01819C19.1921 4.79155 19.2923 4.45024 19.21 4.12814C19.1277 3.80604 18.8762 3.55452 18.5541 3.47226C18.232 3.39001 17.8907 3.49012 17.6641 3.73334L15.1671 6.23031C14.8126 6.58524 14.8126 7.16023 15.1671 7.51516C15.3367 7.68684 15.5682 7.78296 15.8095 7.78182Z" fill="#0072F5"/>
<path d="M6.83986 14.5576L4.34289 17.0546C3.9884 17.4095 3.9884 17.9845 4.34289 18.3394C4.51165 18.5123 4.74375 18.6086 4.98532 18.6061C5.22661 18.6072 5.45819 18.5111 5.62774 18.3394L8.12471 15.8425C8.36793 15.6158 8.46804 15.2745 8.38578 14.9524C8.30352 14.6303 8.05201 14.3788 7.72991 14.2965C7.40781 14.2143 7.06649 14.3144 6.83986 14.5576Z" fill="#0072F5"/>
<path d="M7.4823 10.9576H3.9429C3.44083 10.9576 3.03381 11.3646 3.03381 11.8667C3.03381 12.3687 3.44083 12.7758 3.9429 12.7758H7.4823C7.98438 12.7758 8.39139 12.3687 8.39139 11.8667C8.39139 11.3646 7.98438 10.9576 7.4823 10.9576Z" fill="#0072F5"/>
</svg>
