<svg width="18" height="18" viewBox="0 0 18 18" fill="none" xmlns="http://www.w3.org/2000/svg">
<path d="M12.48 16.5H5.52001C4.76189 16.4724 4.05569 16.1078 3.59427 15.5056C3.13285 14.9034 2.96443 14.1267 3.13501 13.3875L3.31501 12.5325C3.52204 11.3751 4.51698 10.5245 5.69251 10.5H12.3075C13.483 10.5245 14.478 11.3751 14.685 12.5325L14.865 13.3875C15.0356 14.1267 14.8672 14.9034 14.4058 15.5056C13.9443 16.1078 13.2381 16.4724 12.48 16.5Z" fill="white"/>
<path d="M9.37501 9H8.62501C6.96816 9 5.62501 7.65685 5.62501 6V4.02C5.62301 3.35104 5.88787 2.7089 6.36089 2.23588C6.83392 1.76285 7.47605 1.498 8.14501 1.5H9.85501C10.524 1.498 11.1661 1.76285 11.6391 2.23588C12.1122 2.7089 12.377 3.35104 12.375 4.02V6C12.375 6.79565 12.0589 7.55871 11.4963 8.12132C10.9337 8.68393 10.1707 9 9.37501 9Z" fill="white"/>
</svg>
