<svg width="36" height="36" viewBox="0 0 36 36" fill="none" xmlns="http://www.w3.org/2000/svg">
<g clip-path="url(#clip0_23_264)">
<path d="M28.5234 23.7031C28.2578 23.4219 28.0625 23.1641 27.9375 22.9297C27.8125 22.6797 27.75 22.375 27.75 22.0156C27.75 21.5781 27.8438 21.1406 28.0312 20.7031C28.2188 20.25 28.4531 19.8516 28.7344 19.5078C29.0312 19.1484 29.3516 18.8594 29.6953 18.6406C30.0391 18.4062 30.3672 18.2891 30.6797 18.2891C30.9609 18.2891 31.2031 18.3047 31.4062 18.3359C31.6094 18.3516 31.7891 18.3828 31.9453 18.4297C32.1172 18.4609 32.2656 18.5156 32.3906 18.5938C32.5312 18.6562 32.6797 18.7344 32.8359 18.8281C33.4453 19.2188 33.75 19.5078 33.75 19.6953C33.75 19.7266 33.7109 19.7578 33.6328 19.7891C33.3516 19.7109 33.125 19.625 32.9531 19.5312C32.7812 19.4375 32.5625 19.3906 32.2969 19.3906C31.875 19.3906 31.4531 19.4453 31.0312 19.5547C30.625 19.6484 30.25 19.7656 29.9062 19.9062C29.5625 20.0469 29.2734 20.1953 29.0391 20.3516C28.8203 20.5078 28.6953 20.6328 28.6641 20.7266C28.6641 20.9609 28.7344 21.1875 28.875 21.4062C29.1562 21.875 29.5 22.2812 29.9062 22.625C30.3125 22.9688 30.7812 23.1641 31.3125 23.2109C31.6875 23.1172 32.0625 22.9688 32.4375 22.7656C32.8281 22.5625 33.1875 22.3672 33.5156 22.1797C33.8438 21.9766 34.125 21.7969 34.3594 21.6406C34.5938 21.4844 34.7422 21.4062 34.8047 21.4062C34.8516 21.4062 34.8828 21.4375 34.8984 21.5C34.8516 21.6875 34.8047 21.8516 34.7578 21.9922C34.7109 22.1172 34.6641 22.2422 34.6172 22.3672C34.5703 22.4922 34.5156 22.6172 34.4531 22.7422C34.4062 22.8672 34.3359 23.0234 34.2422 23.2109C33.4922 23.8672 32.6328 24.375 31.6641 24.7344C30.7109 25.0781 29.7109 25.25 28.6641 25.25C28.3984 25.25 28.1094 25.2344 27.7969 25.2031C27.4844 25.1719 27.1641 25.1094 26.8359 25.0156C26.5234 24.9219 26.2188 24.7891 25.9219 24.6172C25.625 24.4297 25.3672 24.1797 25.1484 23.8672C24.8984 23.5547 24.7031 23.2031 24.5625 22.8125H24.4453C24.3984 23.0625 24.3281 23.3125 24.2344 23.5625C24.1406 23.8125 24.0156 24.0391 23.8594 24.2422C23.7031 24.4453 23.5078 24.6094 23.2734 24.7344C23.0391 24.8594 22.75 24.9219 22.4062 24.9219C21.9219 24.9219 21.5 24.8047 21.1406 24.5703C20.7812 24.3203 20.4219 24.0156 20.0625 23.6562C19.3438 24.0938 18.5078 24.4922 17.5547 24.8516C16.6016 25.2109 15.5312 25.4844 14.3438 25.6719C14.4688 26.5625 14.5938 27.3359 14.7188 27.9922C14.8594 28.6484 15.0625 29.2422 15.3281 29.7734C15.5469 30.2266 15.8906 30.5469 16.3594 30.7344C16.8281 30.9062 17.4766 30.9922 18.3047 30.9922C18.6328 30.9922 19.0078 30.9453 19.4297 30.8516C19.8516 30.7422 20.2188 30.5781 20.5312 30.3594C20.6406 30.2812 20.75 30.1875 20.8594 30.0781C20.9844 29.9688 21.0938 29.8594 21.1875 29.75C21.2969 29.6406 21.3828 29.5547 21.4453 29.4922C21.5234 29.4141 21.5859 29.375 21.6328 29.375C21.7109 29.4688 21.75 29.5469 21.75 29.6094C21.75 29.7969 21.7188 29.9766 21.6562 30.1484C21.5938 30.3203 21.5469 30.4453 21.5156 30.5234C21.625 30.6484 21.7969 30.7578 22.0312 30.8516C22.2656 30.9297 22.6328 30.9688 23.1328 30.9688C23.6328 30.9688 24.0234 30.875 24.3047 30.6875C24.6016 30.4844 24.8359 30.2344 25.0078 29.9375C25.0703 29.7969 25.1406 29.625 25.2188 29.4219C25.3125 29.2188 25.3984 29.0234 25.4766 28.8359C25.5703 28.6328 25.6562 28.4688 25.7344 28.3438C25.8125 28.2031 25.8828 28.1328 25.9453 28.1328C26.0234 28.2891 26.0625 28.4062 26.0625 28.4844C26.0625 28.8438 25.9922 29.2891 25.8516 29.8203C26.0859 30.0547 26.3984 30.2344 26.7891 30.3594C27.1797 30.4844 27.5547 30.5469 27.9141 30.5469C28.0703 30.5469 28.1641 30.5312 28.1953 30.5C28.2422 30.4688 28.2656 30.375 28.2656 30.2188C28.2656 29.9531 28.2109 29.7109 28.1016 29.4922C27.9922 29.2734 27.9375 29.125 27.9375 29.0469C27.9375 29.0156 27.9375 28.9766 27.9375 28.9297C27.9375 28.8672 27.9531 28.7969 27.9844 28.7188C28.0156 28.5625 28.0469 28.4062 28.0781 28.25C28.125 28.0938 28.2109 27.8828 28.3359 27.6172C28.4766 27.8984 28.5703 28.1328 28.6172 28.3203C28.6797 28.5391 28.7266 28.7734 28.7578 29.0234C28.8047 29.2578 28.8281 29.4609 28.8281 29.6328C28.8281 29.9297 28.7969 30.2188 28.7344 30.5C28.6719 30.7812 28.5859 31.0312 28.4766 31.25C28.3672 31.4531 28.2344 31.6172 28.0781 31.7422C27.9375 31.8672 27.7812 31.9297 27.6094 31.9297C27.1562 31.9297 26.7109 31.8672 26.2734 31.7422C25.8516 31.6016 25.5078 31.4297 25.2422 31.2266C24.9922 31.5703 24.6562 31.8594 24.2344 32.0938C23.8125 32.3438 23.3828 32.4688 22.9453 32.4688C22.4766 32.4688 22.0859 32.4375 21.7734 32.375C21.4766 32.3125 21.2344 32.2344 21.0469 32.1406C20.875 32.0625 20.7422 31.9766 20.6484 31.8828C20.5703 31.7734 20.5078 31.6719 20.4609 31.5781C20.2891 31.7031 20.0859 31.8281 19.8516 31.9531C19.6172 32.0625 19.375 32.1562 19.125 32.2344C18.8906 32.3125 18.6562 32.375 18.4219 32.4219C18.1875 32.4688 17.9766 32.4922 17.7891 32.4922C17.1484 32.4922 16.5547 32.4141 16.0078 32.2578C15.4766 32.1016 15.0312 31.7812 14.6719 31.2969C14.4531 31 14.2812 30.6875 14.1562 30.3594C14.0312 30.0312 13.9297 29.6719 13.8516 29.2812H13.7344C13.5 29.7344 13.2266 30.1016 12.9141 30.3828C12.6172 30.6484 12.1953 30.7969 11.6484 30.8281C11.6484 30.8594 11.6484 30.8984 11.6484 30.9453C11.6641 30.9922 11.6719 31.0625 11.6719 31.1562C11.6719 31.2969 11.6484 31.4531 11.6016 31.625C11.5547 31.7969 11.4844 31.9688 11.3906 32.1406C11.3125 32.3125 11.2188 32.4688 11.1094 32.6094C11.0156 32.7656 10.9219 32.8828 10.8281 32.9609C10.6406 33.0234 10.4453 33.0547 10.2422 33.0547C9.85156 33.0547 9.47656 32.9531 9.11719 32.75C8.75781 32.5625 8.42188 32.3359 8.10938 32.0703C8.0625 32.0391 8.00781 31.9922 7.94531 31.9297C7.88281 31.8672 7.82031 31.8047 7.75781 31.7422C7.61719 31.9141 7.46875 32.0938 7.3125 32.2812C7.15625 32.4688 6.98438 32.6484 6.79688 32.8203C6.48438 33.1016 6.19531 33.3203 5.92969 33.4766C5.66406 33.6484 5.40625 33.7812 5.15625 33.875C4.92188 33.9688 4.6875 34.0391 4.45312 34.0859C4.23438 34.1328 4.00781 34.1797 3.77344 34.2266C3.69531 34.2422 3.57812 34.2656 3.42188 34.2969C3.26562 34.3281 3.09375 34.3594 2.90625 34.3906C2.73438 34.4375 2.5625 34.4688 2.39062 34.4844C2.23438 34.5156 2.10938 34.5312 2.01562 34.5312C1.95312 34.5312 1.92188 34.5234 1.92188 34.5078C1.92188 34.4609 1.98438 34.3984 2.10938 34.3203C2.23438 34.2578 2.39062 34.1797 2.57812 34.0859C2.78125 34.0078 3 33.9219 3.23438 33.8281C3.48438 33.7344 3.72656 33.6328 3.96094 33.5234C4.27344 33.3672 4.5625 33.2188 4.82812 33.0781C5.09375 32.9531 5.34375 32.8203 5.57812 32.6797C5.8125 32.5391 6.03906 32.3828 6.25781 32.2109C6.49219 32.0547 6.72656 31.8828 6.96094 31.6953C7.08594 31.5859 7.21875 31.4531 7.35938 31.2969C7.5 31.1406 7.59375 30.9844 7.64062 30.8281C7.76562 30.2656 7.97656 29.8047 8.27344 29.4453C8.58594 29.0859 8.98438 28.9062 9.46875 28.9062C9.8125 28.9062 10.1562 28.9922 10.5 29.1641C10.7969 29.3047 11.1953 29.375 11.6953 29.375C11.9297 29.375 12.1562 29.3594 12.375 29.3281C12.6094 29.2812 12.8125 29.2188 12.9844 29.1406C13.1719 29.0469 13.3203 28.9375 13.4297 28.8125C13.5391 28.6875 13.5938 28.5312 13.5938 28.3438C13.5625 28.0781 13.5312 27.7188 13.5 27.2656C13.4688 26.8125 13.4297 26.3281 13.3828 25.8125C13.0391 25.8438 12.6875 25.8672 12.3281 25.8828C11.9844 25.8984 11.6328 25.9062 11.2734 25.9062C10.6797 25.9062 10.1172 25.8516 9.58594 25.7422C9.05469 25.6172 8.5625 25.4609 8.10938 25.2734C7.65625 25.0703 7.25 24.8359 6.89062 24.5703C6.53125 24.3047 6.23438 24.0234 6 23.7266C5.89062 23.5859 5.78906 23.4219 5.69531 23.2344C5.60156 23.0312 5.51562 22.8281 5.4375 22.625C5.375 22.4062 5.32031 22.1953 5.27344 21.9922C5.22656 21.7891 5.19531 21.6094 5.17969 21.4531C5.00781 21.7031 4.85938 21.9141 4.73438 22.0859C4.60938 22.2422 4.46875 22.3672 4.3125 22.4609C4.17188 22.5547 4 22.625 3.79688 22.6719C3.59375 22.7031 3.34375 22.7188 3.04688 22.7188C2.64062 22.7188 2.27344 22.6562 1.94531 22.5312C1.61719 22.3906 1.45312 22.2344 1.45312 22.0625C1.45312 21.9844 1.46875 21.8672 1.5 21.7109C1.54688 21.5391 1.60156 21.3594 1.66406 21.1719C1.72656 20.9688 1.80469 20.7734 1.89844 20.5859C1.99219 20.3984 2.10156 20.2344 2.22656 20.0938C2.32031 20 2.47656 19.8672 2.69531 19.6953C2.91406 19.5234 3.14844 19.3438 3.39844 19.1562C3.66406 18.9688 3.92188 18.7969 4.17188 18.6406C4.42188 18.4844 4.625 18.3672 4.78125 18.2891C4.79688 18.0859 4.8125 17.875 4.82812 17.6562C4.84375 17.4219 4.85938 17.2109 4.875 17.0234C4.90625 16.8359 4.9375 16.6875 4.96875 16.5781C5.01562 16.4531 5.07031 16.3906 5.13281 16.3906C5.25781 16.4062 5.34375 16.6094 5.39062 17C5.4375 17.375 5.47656 17.8125 5.50781 18.3125C5.55469 18.9688 5.64062 19.5938 5.76562 20.1875C5.89062 20.7812 6.05469 21.3203 6.25781 21.8047C6.39844 22.1484 6.64062 22.4766 6.98438 22.7891C7.34375 23.1016 7.77344 23.375 8.27344 23.6094C8.77344 23.8438 9.33594 24.0312 9.96094 24.1719C10.5859 24.2969 11.2578 24.3594 11.9766 24.3594C12.1953 24.3594 12.3984 24.3594 12.5859 24.3594C12.7891 24.3594 13 24.3516 13.2188 24.3359C13.1875 23.9297 13.1406 23.5234 13.0781 23.1172C13.0312 22.6953 12.9922 22.2812 12.9609 21.875H12.4453C11.8047 21.875 11.2422 21.7734 10.7578 21.5703C10.2891 21.3516 9.89062 21.0625 9.5625 20.7031C9.25 20.3281 9.01562 19.8984 8.85938 19.4141C8.70312 18.9141 8.625 18.3828 8.625 17.8203C8.625 17.3203 8.67969 16.8359 8.78906 16.3672C8.91406 15.8984 9.04688 15.4844 9.1875 15.125C9.34375 14.75 9.48438 14.4531 9.60938 14.2344C9.75 14.0156 9.84375 13.9062 9.89062 13.9062C10.0156 13.9062 10.0781 13.9688 10.0781 14.0938C9.8125 14.6875 9.60156 15.1719 9.44531 15.5469C9.28906 15.9219 9.21094 16.3594 9.21094 16.8594C9.21094 17.4375 9.29688 17.9453 9.46875 18.3828C9.64062 18.8203 9.86719 19.1875 10.1484 19.4844C10.4453 19.7656 10.7734 19.9844 11.1328 20.1406C11.5078 20.2812 11.8906 20.3516 12.2812 20.3516C12.3594 20.3516 12.4453 20.3516 12.5391 20.3516C12.6328 20.3516 12.7188 20.3438 12.7969 20.3281C12.7188 19.5312 12.6562 18.8047 12.6094 18.1484C12.5625 17.4766 12.5391 16.9375 12.5391 16.5312C12.5391 16.4844 12.5547 16.3828 12.5859 16.2266C12.6328 16.0547 12.6797 15.8906 12.7266 15.7344C12.7891 15.5625 12.8438 15.4141 12.8906 15.2891C12.9531 15.1484 13.0078 15.0781 13.0547 15.0781C13.1328 15.0781 13.1875 15.1641 13.2188 15.3359C13.2656 15.5078 13.3125 15.8125 13.3594 16.25C13.3906 16.8438 13.4297 17.4844 13.4766 18.1719C13.5234 18.8438 13.5859 19.5312 13.6641 20.2344C14.2266 20.1562 14.7734 20.0391 15.3047 19.8828C15.8359 19.7266 16.3281 19.5547 16.7812 19.3672C17.2344 19.1797 17.6328 18.9922 17.9766 18.8047C18.3359 18.6172 18.6172 18.4531 18.8203 18.3125C18.9141 18.25 19.0156 18.1797 19.125 18.1016C19.2344 18.0078 19.3281 17.9062 19.4062 17.7969C19.375 17.7656 19.2734 17.7188 19.1016 17.6562C18.9297 17.5938 18.7656 17.5391 18.6094 17.4922C18.4844 17.4453 18.3047 17.3984 18.0703 17.3516C17.8359 17.3047 17.5859 17.2656 17.3203 17.2344C17.0703 17.1875 16.8359 17.1484 16.6172 17.1172C16.3984 17.0703 16.25 17.0391 16.1719 17.0234C16.0781 17.0234 16.0312 16.9766 16.0312 16.8828C16.0625 16.7109 16.1094 16.5312 16.1719 16.3438C16.2344 16.1562 16.3047 16.0078 16.3828 15.8984C16.5859 15.8672 16.8359 15.7969 17.1328 15.6875C17.4453 15.5781 17.7344 15.4453 18 15.2891C18.2656 15.1172 18.4922 14.9375 18.6797 14.75C18.8828 14.5625 18.9844 14.3828 18.9844 14.2109C18.9844 14.1016 18.9766 14 18.9609 13.9062C18.9609 13.7969 18.9531 13.7031 18.9375 13.625C18.8438 12.9062 18.7344 12.1562 18.6094 11.375C18.5 10.5938 18.3906 9.80469 18.2812 9.00781C18.1875 8.19531 18.1016 7.39844 18.0234 6.61719C17.9609 5.82031 17.9297 5.0625 17.9297 4.34375C17.9922 4.01562 18.0469 3.77344 18.0938 3.61719C18.1406 3.46094 18.2344 3.25781 18.375 3.00781C18.4688 3.00781 18.5156 3.08594 18.5156 3.24219C18.5312 3.39844 18.5547 3.69531 18.5859 4.13281C18.6172 4.61719 18.6562 5.07812 18.7031 5.51562C18.75 5.95313 18.7969 6.39062 18.8438 6.82812C18.8906 7.26563 18.9453 7.71875 19.0078 8.1875C19.0703 8.65625 19.1406 9.15625 19.2188 9.6875C19.2656 9.98438 19.3203 10.3125 19.3828 10.6719C19.4609 11.0312 19.5547 11.3984 19.6641 11.7734C19.7734 12.1328 19.8984 12.4766 20.0391 12.8047C20.1797 13.1328 20.3438 13.4141 20.5312 13.6484C20.8281 14.0234 21.1797 14.2812 21.5859 14.4219C22.0078 14.5469 22.5 14.625 23.0625 14.6562C22.9844 13.9375 22.9062 13.2344 22.8281 12.5469C22.7656 11.8594 22.7031 11.2188 22.6406 10.625C22.5938 10.0156 22.5547 9.46875 22.5234 8.98438C22.4922 8.48438 22.4766 8.07031 22.4766 7.74219C22.4766 7.64844 22.4922 7.51562 22.5234 7.34375C22.5703 7.15625 22.6172 6.96875 22.6641 6.78125C22.7109 6.59375 22.7578 6.42969 22.8047 6.28906C22.8672 6.14844 22.9219 6.07812 22.9688 6.07812C23.0625 6.07812 23.125 6.16406 23.1562 6.33594C23.1875 6.50781 23.2188 6.8125 23.25 7.25C23.2969 8.28125 23.3906 9.44531 23.5312 10.7422C23.6719 12.0234 23.8281 13.3281 24 14.6562C24.5469 14.625 24.9922 14.5156 25.3359 14.3281C25.6953 14.1406 26.0312 13.8359 26.3438 13.4141C26.5 13.1953 26.6328 12.9844 26.7422 12.7812C26.8672 12.5625 27 12.4531 27.1406 12.4531C27.2031 12.4531 27.2344 12.5156 27.2344 12.6406C27.2344 12.7188 27.2109 12.8047 27.1641 12.8984C27.1328 12.9922 27.1094 13.0781 27.0938 13.1562C27.125 13.2031 27.1641 13.2578 27.2109 13.3203C27.2578 13.3672 27.3203 13.4141 27.3984 13.4609C27.5078 13.5391 27.6328 13.6328 27.7734 13.7422C27.9297 13.8359 28.1406 13.9297 28.4062 14.0234C28.6719 13.6797 28.9531 13.3359 29.25 12.9922C29.5469 12.6484 29.8281 12.3516 30.0938 12.1016C30.75 11.5078 31.4141 11.0234 32.0859 10.6484C32.7578 10.2734 33.3984 10.0859 34.0078 10.0859C34.2891 10.0859 34.5469 10.1484 34.7812 10.2734C35.0312 10.3828 35.2422 10.5234 35.4141 10.6953C35.6016 10.8516 35.7422 11.0156 35.8359 11.1875C35.9453 11.3594 36 11.4922 36 11.5859C36 11.9922 35.8906 12.4297 35.6719 12.8984C35.5312 13.1953 35.3359 13.5078 35.0859 13.8359C34.8516 14.1484 34.5078 14.4453 34.0547 14.7266C33.6016 14.9922 33.0156 15.2188 32.2969 15.4062C31.5938 15.5781 30.7109 15.6641 29.6484 15.6641C28.9141 15.6641 28.3359 15.6016 27.9141 15.4766C27.5703 15.9297 27.3047 16.3359 27.1172 16.6953C27.0703 16.7734 27.0234 16.8125 26.9766 16.8125C26.8984 16.8125 26.8594 16.7734 26.8594 16.6953C26.8594 16.5859 26.9141 16.4141 27.0234 16.1797C27.1484 15.9297 27.3125 15.6406 27.5156 15.3125C27.3125 15.2188 27.125 15.1094 26.9531 14.9844C26.7969 14.8438 26.6719 14.6719 26.5781 14.4688C26.3594 14.8125 26.0469 15.125 25.6406 15.4062C25.2344 15.6719 24.7422 15.8594 24.1641 15.9688C24.1953 16.125 24.2109 16.2812 24.2109 16.4375C24.2266 16.5781 24.25 16.7266 24.2812 16.8828C24.3281 17.3047 24.3906 17.7656 24.4688 18.2656C24.5625 18.75 24.6641 19.2344 24.7734 19.7188C24.8984 20.2031 25.0312 20.6797 25.1719 21.1484C25.3125 21.6016 25.4766 22.0078 25.6641 22.3672C25.8047 22.6328 25.9844 22.8516 26.2031 23.0234C26.4219 23.1953 26.6562 23.3359 26.9062 23.4453C27.1719 23.5391 27.4375 23.6094 27.7031 23.6562C27.9844 23.6875 28.2578 23.7031 28.5234 23.7031ZM13.8281 21.7578C13.875 22.1953 13.9219 22.625 13.9688 23.0469C14.0312 23.4531 14.0859 23.8516 14.1328 24.2422C15.1172 24.1484 16.0781 23.9766 17.0156 23.7266C17.9688 23.4609 18.8906 23.0938 19.7812 22.625C20 22.5 20.1875 22.3594 20.3438 22.2031C20.5156 22.0312 20.6719 21.8359 20.8125 21.6172C20.8438 21.5391 20.8906 21.4844 20.9531 21.4531C21.0312 21.4062 21.0859 21.3828 21.1172 21.3828C21.2109 21.3828 21.2578 21.4688 21.2578 21.6406C21.2578 21.7656 21.2109 21.9688 21.1172 22.25C21.0234 22.5156 20.875 22.7656 20.6719 23C20.875 23.1406 21.1484 23.2656 21.4922 23.375C21.8516 23.4688 22.125 23.5156 22.3125 23.5156C22.7188 23.5156 23.0625 23.4297 23.3438 23.2578C23.6406 23.0859 23.8594 22.7891 24 22.3672C24 21.7109 23.9297 20.9609 23.7891 20.1172C23.6484 19.2734 23.5234 18.3984 23.4141 17.4922C23.3828 17.2578 23.3516 17.0234 23.3203 16.7891C23.3047 16.5391 23.2812 16.2891 23.25 16.0391C22.625 16.0391 22.0859 15.9922 21.6328 15.8984C21.1797 15.7891 20.7422 15.5547 20.3203 15.1953C20.1953 15.1172 20.0469 14.9531 19.875 14.7031C19.7188 14.4375 19.5938 14.1719 19.5 13.9062H19.4531C19.4219 14.1719 19.3359 14.4844 19.1953 14.8438C19.0703 15.2031 18.8828 15.5 18.6328 15.7344C18.4766 15.8906 18.2734 16.0234 18.0234 16.1328C18.4922 16.2266 18.875 16.3203 19.1719 16.4141C19.5312 16.5391 19.7734 16.6719 19.8984 16.8125C20.0391 16.9375 20.1094 17.1016 20.1094 17.3047C20.1094 17.6172 20.0781 17.9453 20.0156 18.2891C19.9531 18.6172 19.8125 18.875 19.5938 19.0625C19.3438 19.2969 19.0156 19.5469 18.6094 19.8125C18.2188 20.0781 17.7734 20.3438 17.2734 20.6094C16.7734 20.8594 16.2266 21.0938 15.6328 21.3125C15.0547 21.5156 14.4531 21.6641 13.8281 21.7578ZM11.5547 5.58594C11.6172 5.58594 11.6641 5.64844 11.6953 5.77344C11.7422 5.88281 11.7812 6.02344 11.8125 6.19531C11.8594 6.36719 11.8906 6.55469 11.9062 6.75781C11.9375 6.94531 11.9766 7.125 12.0234 7.29688C12.0859 7.53125 12.1797 7.89062 12.3047 8.375C12.4453 8.85938 12.5859 9.36719 12.7266 9.89844C12.8672 10.4141 12.9922 10.9062 13.1016 11.375C13.2109 11.8438 13.2656 12.1797 13.2656 12.3828C13.2656 12.4609 13.25 12.6406 13.2188 12.9219C13.1875 13.1875 13.125 13.4766 13.0312 13.7891C12.9531 14.0859 12.8438 14.3594 12.7031 14.6094C12.5625 14.8438 12.3828 14.9609 12.1641 14.9609C11.8984 14.9609 11.6484 14.9141 11.4141 14.8203C11.1797 14.7266 10.9609 14.6172 10.7578 14.4922C10.4453 14.2578 10.2031 14.0391 10.0312 13.8359C9.85938 13.6172 9.66406 13.375 9.44531 13.1094C9.35156 13.3281 9.24219 13.5703 9.11719 13.8359C8.99219 14.0859 8.83594 14.3281 8.64844 14.5625C8.46094 14.7812 8.22656 14.9688 7.94531 15.125C7.67969 15.2812 7.35938 15.3594 6.98438 15.3594C6.67188 15.3594 6.40625 15.3125 6.1875 15.2188C5.98438 15.125 5.80469 15.0078 5.64844 14.8672C5.42969 14.6484 5.26562 14.4297 5.15625 14.2109C5.0625 13.9766 4.97656 13.7266 4.89844 13.4609C4.85156 13.4609 4.82031 13.4922 4.80469 13.5547C4.78906 13.6016 4.75781 13.6641 4.71094 13.7422C4.66406 13.8203 4.5625 13.9297 4.40625 14.0703C4.26562 14.1953 4.05469 14.3516 3.77344 14.5391C3.71094 14.5703 3.48438 14.6016 3.09375 14.6328C2.71875 14.6641 2.30469 14.6797 1.85156 14.6797C1.38281 14.6797 1.07031 14.5859 0.914062 14.3984C0.773438 14.2109 0.703125 14.0625 0.703125 13.9531C0.703125 13.9062 0.734375 13.7891 0.796875 13.6016C0.875 13.4141 0.96875 13.2031 1.07812 12.9688C1.20312 12.7188 1.34375 12.4766 1.5 12.2422C1.65625 11.9922 1.82031 11.7891 1.99219 11.6328C2.14844 11.5078 2.34375 11.375 2.57812 11.2344C2.82812 11.0781 3.07812 10.9219 3.32812 10.7656C3.59375 10.5938 3.85156 10.4375 4.10156 10.2969C4.35156 10.1406 4.5625 10 4.73438 9.875C4.76562 9.70312 4.78906 9.54688 4.80469 9.40625C4.83594 9.26562 4.86719 9.13281 4.89844 9.00781C4.94531 8.86719 4.99219 8.73438 5.03906 8.60938C5.10156 8.46875 5.17969 8.3125 5.27344 8.14062C5.32031 8.14062 5.36719 8.21094 5.41406 8.35156C5.46094 8.47656 5.48438 8.63281 5.48438 8.82031C5.48438 9.05469 5.46875 9.35156 5.4375 9.71094C5.42188 10.0547 5.41406 10.3906 5.41406 10.7188C5.41406 10.9844 5.41406 11.2422 5.41406 11.4922C5.42969 11.7266 5.45312 11.9453 5.48438 12.1484C5.5 12.2422 5.53906 12.375 5.60156 12.5469C5.67969 12.7188 5.78125 12.8984 5.90625 13.0859C6.04688 13.2578 6.21875 13.4062 6.42188 13.5312C6.625 13.6562 6.875 13.7188 7.17188 13.7188C7.48438 13.7188 7.76562 13.6562 8.01562 13.5312C8.26562 13.4062 8.47656 13.2656 8.64844 13.1094C8.82031 12.9531 8.94531 12.8047 9.02344 12.6641C9.11719 12.5078 9.16406 12.4141 9.16406 12.3828C9.16406 12.2891 9.14062 12.0703 9.09375 11.7266C9.04688 11.3672 8.96094 10.8125 8.83594 10.0625C8.77344 9.82812 8.71094 9.57031 8.64844 9.28906C8.60156 8.99219 8.54688 8.59375 8.48438 8.09375C8.53125 7.71875 8.57031 7.4375 8.60156 7.25C8.64844 7.04687 8.71094 6.78906 8.78906 6.47656C8.83594 6.47656 8.89062 6.59375 8.95312 6.82812C9.01562 7.04687 9.07812 7.32031 9.14062 7.64844C9.21875 7.96094 9.28906 8.29688 9.35156 8.65625C9.42969 9.01562 9.49219 9.32031 9.53906 9.57031C9.61719 9.94531 9.6875 10.3203 9.75 10.6953C9.82812 11.0703 9.94531 11.4297 10.1016 11.7734C10.3516 12.2422 10.6953 12.6406 11.1328 12.9688C11.5859 13.2812 12 13.4375 12.375 13.4375C12.5781 13.4375 12.6953 13.4141 12.7266 13.3672C12.7578 13.3047 12.7734 13.2344 12.7734 13.1562C12.6953 12.8906 12.6094 12.6016 12.5156 12.2891C12.4219 11.9609 12.3203 11.6016 12.2109 11.2109L11.6484 9.19531C11.5391 8.83594 11.4453 8.47656 11.3672 8.11719C11.2891 7.75781 11.25 7.52344 11.25 7.41406C11.25 7.25781 11.2578 7.03125 11.2734 6.73438C11.3047 6.42188 11.3984 6.03906 11.5547 5.58594ZM33.6797 29.3281C33.6641 30.5312 33.2969 31.5938 32.5781 32.5156C32.4062 32.7344 32.1953 32.9609 31.9453 33.1953C31.7109 33.4453 31.4609 33.6719 31.1953 33.875C30.9297 34.0781 30.6641 34.2422 30.3984 34.3672C30.1484 34.5078 29.9219 34.5781 29.7188 34.5781C29.3438 34.5312 29 34.4844 28.6875 34.4375C28.3906 34.3906 28.1016 34.3359 27.8203 34.2734C27.5391 34.2109 27.2578 34.1406 26.9766 34.0625C26.6953 33.9844 26.3906 33.8984 26.0625 33.8047C26 33.7891 25.9688 33.75 25.9688 33.6875C25.9688 33.625 26.0234 33.5938 26.1328 33.5938C26.3672 33.5938 26.6719 33.5859 27.0469 33.5703C27.4219 33.5703 27.8125 33.5469 28.2188 33.5C28.6406 33.4531 29.0625 33.375 29.4844 33.2656C29.9062 33.1562 30.2812 33 30.6094 32.7969C31.3125 32.3594 31.8906 31.8672 32.3438 31.3203C32.7969 30.7578 33.0859 30.1719 33.2109 29.5625C33.1797 29.3438 33.1484 29.1719 33.1172 29.0469C33.0859 28.9219 33.0234 28.7734 32.9297 28.6016H32.8125C32.7812 28.8047 32.7031 28.9688 32.5781 29.0938C32.4688 29.2188 32.3359 29.3203 32.1797 29.3984C32.0391 29.4609 31.8828 29.5078 31.7109 29.5391C31.5547 29.5703 31.4062 29.5859 31.2656 29.5859C30.875 29.6016 30.5625 29.4922 30.3281 29.2578C30.1094 29.0078 30 28.7266 30 28.4141C30 28.2266 30.0391 27.9844 30.1172 27.6875C30.2109 27.3906 30.3359 27.1016 30.4922 26.8203C30.6484 26.5391 30.8359 26.2969 31.0547 26.0938C31.2734 25.8906 31.5156 25.7891 31.7812 25.7891C31.9844 25.7891 32.1641 25.8281 32.3203 25.9062C32.4922 25.9688 32.6484 26.0547 32.7891 26.1641C32.9922 26.3672 33.1875 26.6797 33.375 27.1016C33.5781 27.5234 33.6797 28.0234 33.6797 28.6016V29.3281ZM29.0391 14.1406C29.1641 14.1562 29.3047 14.1719 29.4609 14.1875C29.6328 14.1875 29.7969 14.1875 29.9531 14.1875C31.1719 14.1875 32.2422 14.0547 33.1641 13.7891C34.0859 13.5078 34.75 13.1484 35.1562 12.7109C35.0625 12.4766 34.8594 12.2266 34.5469 11.9609C34.2344 11.6953 33.8906 11.5625 33.5156 11.5625C33.3594 11.5625 33.1641 11.5938 32.9297 11.6562C32.7109 11.7031 32.4766 11.7734 32.2266 11.8672C31.9766 11.9609 31.7188 12.0781 31.4531 12.2188C31.2031 12.3438 30.9688 12.4922 30.75 12.6641C30.4219 12.9141 30.1094 13.1641 29.8125 13.4141C29.5312 13.6641 29.2734 13.9062 29.0391 14.1406ZM15.6562 14.2812C15.625 13.9062 15.5625 13.4062 15.4688 12.7812C15.375 12.1406 15.2422 11.3906 15.0703 10.5312L14.5312 7.88281C14.4844 7.61719 14.4219 7.22656 14.3438 6.71094C14.2656 6.19531 14.2109 5.71875 14.1797 5.28125C14.1797 5.17187 14.2109 4.96875 14.2734 4.67188C14.3516 4.35938 14.4844 3.97656 14.6719 3.52344C14.7188 3.52344 14.7578 3.5625 14.7891 3.64062C14.8203 3.71875 14.8438 3.8125 14.8594 3.92188C14.875 4.03125 14.8828 4.15625 14.8828 4.29688C14.8984 4.42187 14.9141 4.53906 14.9297 4.64844C15.0078 5.17969 15.0703 5.66406 15.1172 6.10156C15.1641 6.52344 15.2188 6.89063 15.2812 7.20312L15.6562 9.26562C15.7188 9.57812 15.7734 9.92188 15.8203 10.2969C15.8828 10.6562 15.9375 11.0234 15.9844 11.3984C16.0312 11.7734 16.0703 12.1406 16.1016 12.5C16.1328 12.8438 16.1484 13.1562 16.1484 13.4375C16.1484 13.5625 16.1328 13.7109 16.1016 13.8828C16.0859 14.0391 16.0625 14.1953 16.0312 14.3516C16 14.5078 15.9609 14.6484 15.9141 14.7734C15.8672 14.8828 15.8125 14.9375 15.75 14.9375C15.7031 14.9375 15.6719 14.8828 15.6562 14.7734C15.6562 14.6641 15.6562 14.5547 15.6562 14.4453V14.2812ZM22.0781 33.5938C22.1094 33.6562 22.1562 33.6953 22.2188 33.7109C22.2969 33.7266 22.3594 33.7344 22.4062 33.7344C22.5938 33.7344 22.7578 33.6406 22.8984 33.4531C22.9297 33.4219 22.9844 33.3438 23.0625 33.2188C23.1406 33.1094 23.2109 33.0547 23.2734 33.0547C23.3047 33.0547 23.3203 33.0781 23.3203 33.125C23.3203 33.4531 23.1953 33.75 22.9453 34.0156C22.7109 34.2969 22.4375 34.4375 22.125 34.4375C22.0156 34.4375 21.9297 34.4219 21.8672 34.3906C21.8047 34.3594 21.7344 34.3203 21.6562 34.2734C21.5781 34.3047 21.5 34.3438 21.4219 34.3906C21.3594 34.4531 21.2969 34.5 21.2344 34.5312C21.1562 34.5625 21.0703 34.5938 20.9766 34.625C20.8828 34.6719 20.7812 34.6953 20.6719 34.6953C20.4531 34.6953 20.25 34.6172 20.0625 34.4609C19.8906 34.3203 19.7031 34.25 19.5 34.25C19.375 34.25 19.2578 34.2656 19.1484 34.2969C19.0391 34.3438 18.9297 34.3906 18.8203 34.4375C18.5391 34.5938 18.1797 34.7578 17.7422 34.9297C17.3203 35.1172 16.8828 35.2812 16.4297 35.4219C15.9766 35.5781 15.5312 35.7031 15.0938 35.7969C14.6562 35.8906 14.2812 35.9375 13.9688 35.9375C13.8906 35.9375 13.7656 35.9297 13.5938 35.9141C13.4375 35.8984 13.3594 35.8516 13.3594 35.7734C13.3594 35.7578 13.4141 35.7344 13.5234 35.7031C13.6328 35.6875 13.7734 35.6641 13.9453 35.6328C14.1172 35.6172 14.2969 35.5859 14.4844 35.5391C14.6875 35.5078 14.8828 35.4688 15.0703 35.4219C15.4453 35.3125 15.7734 35.2109 16.0547 35.1172C16.3359 35.0234 16.5938 34.9219 16.8281 34.8125C17.0625 34.7188 17.2812 34.6172 17.4844 34.5078C17.6875 34.3984 17.8984 34.2812 18.1172 34.1562C18.4141 33.9844 18.7109 33.8359 19.0078 33.7109C19.3047 33.5859 19.6094 33.5234 19.9219 33.5234C20.1406 33.5234 20.3281 33.5859 20.4844 33.7109C20.6562 33.8359 20.8516 33.8984 21.0703 33.8984C21.2266 33.8984 21.3672 33.8594 21.4922 33.7812C21.6328 33.7188 21.75 33.625 21.8438 33.5C21.875 33.4531 21.9141 33.3828 21.9609 33.2891C22.0234 33.1953 22.0781 33.1484 22.125 33.1484C22.1562 33.1484 22.1719 33.1641 22.1719 33.1953C22.1719 33.2266 22.1719 33.25 22.1719 33.2656C22.1719 33.3594 22.1406 33.4688 22.0781 33.5938ZM34.8281 4.29688C34.8125 4.32812 34.7891 4.39062 34.7578 4.48438C34.7266 4.5625 34.6953 4.625 34.6641 4.67188C34.6328 4.71875 34.5781 4.80469 34.5 4.92969C34.4219 5.03906 34.3125 5.17187 34.1719 5.32812C33.625 5.51562 33.0391 5.74219 32.4141 6.00781C31.8047 6.25781 31.1797 6.53906 30.5391 6.85156C29.9141 7.14844 29.2891 7.46094 28.6641 7.78906C28.0547 8.10156 27.4844 8.40625 26.9531 8.70312V8.5625C27.0469 8.42188 27.1562 8.26562 27.2812 8.09375C27.4219 7.92188 27.5234 7.8125 27.5859 7.76562C27.7422 7.625 27.9922 7.44531 28.3359 7.22656C28.6953 7.00781 29.1094 6.78125 29.5781 6.54688C30.0469 6.29687 30.5391 6.05469 31.0547 5.82031C31.5859 5.57031 32.0938 5.34375 32.5781 5.14062C33.0625 4.92188 33.5 4.74219 33.8906 4.60156C34.2969 4.44531 34.6094 4.34375 34.8281 4.29688ZM33.1875 15.9922C33.1562 16.0234 33.125 16.0859 33.0938 16.1797C33.0625 16.2578 33.0312 16.3203 33 16.3672C32.9688 16.3984 32.9062 16.4688 32.8125 16.5781C32.7188 16.6875 32.6016 16.8203 32.4609 16.9766C32.0078 17.0859 31.5312 17.2266 31.0312 17.3984C30.5469 17.5547 30.0469 17.7266 29.5312 17.9141C29.0312 18.1016 28.5312 18.2969 28.0312 18.5C27.5312 18.6875 27.0625 18.875 26.625 19.0625L26.6484 18.9219C26.7422 18.7969 26.8594 18.6562 27 18.5C27.1562 18.3438 27.2656 18.2422 27.3281 18.1953C27.5156 18.0391 27.875 17.8438 28.4062 17.6094C28.9531 17.375 29.5312 17.1406 30.1406 16.9062C30.7656 16.6719 31.3594 16.4688 31.9219 16.2969C32.5 16.125 32.9219 16.0234 33.1875 15.9922ZM7.6875 4.08594C7.6875 4.16406 7.64844 4.28906 7.57031 4.46094C7.49219 4.61719 7.45312 4.79687 7.45312 5C7.45312 5.29688 7.58594 5.44531 7.85156 5.44531C8.13281 5.44531 8.33594 5.35937 8.46094 5.1875C8.60156 5 8.70312 4.79687 8.76562 4.57812C8.82812 4.34375 8.88281 4.14062 8.92969 3.96875C8.97656 3.78125 9.0625 3.6875 9.1875 3.6875C9.21875 3.6875 9.24219 3.72656 9.25781 3.80469C9.27344 3.86719 9.28125 3.94531 9.28125 4.03906C9.28125 4.17969 9.26562 4.3125 9.23438 4.4375C9.21875 4.5625 9.20312 4.67188 9.1875 4.76562C9.23438 4.8125 9.30469 4.85938 9.39844 4.90625C9.49219 4.9375 9.58594 4.95312 9.67969 4.95312C9.82031 4.95312 9.92969 4.86719 10.0078 4.69531C10.0859 4.52344 10.1641 4.23437 10.2422 3.82812C10.3047 3.48437 10.375 3.3125 10.4531 3.3125C10.5312 3.3125 10.5703 3.51563 10.5703 3.92188C10.5703 4.10938 10.5547 4.32031 10.5234 4.55469C10.4922 4.77344 10.4375 4.97656 10.3594 5.16406C10.2969 5.35156 10.2031 5.50781 10.0781 5.63281C9.95312 5.75781 9.80469 5.82031 9.63281 5.82031C9.44531 5.82031 9.28125 5.78125 9.14062 5.70312C9 5.625 8.90625 5.57031 8.85938 5.53906C8.78125 5.71094 8.625 5.89844 8.39062 6.10156C8.17188 6.28906 7.91406 6.38281 7.61719 6.38281C7.46094 6.38281 7.32031 6.3125 7.19531 6.17188C7.07031 6.03125 7.00781 5.76563 7.00781 5.375C7.00781 5.01563 7.08594 4.71094 7.24219 4.46094C7.41406 4.21094 7.5625 4.08594 7.6875 4.08594ZM17.0391 0.875C17.0391 0.953125 17 1.07813 16.9219 1.25C16.8438 1.40625 16.8047 1.58594 16.8047 1.78906C16.8047 2.08594 16.9375 2.23438 17.2031 2.23438C17.4844 2.23438 17.6875 2.14844 17.8125 1.97656C17.9531 1.78906 18.0547 1.58594 18.1172 1.36719C18.1797 1.13281 18.2344 0.929688 18.2812 0.757812C18.3281 0.570312 18.4141 0.476562 18.5391 0.476562C18.5703 0.476562 18.5938 0.515626 18.6094 0.593751C18.625 0.65625 18.6328 0.734375 18.6328 0.828125C18.6328 0.96875 18.6172 1.10156 18.5859 1.22656C18.5703 1.35156 18.5547 1.46094 18.5391 1.55469C18.5859 1.60156 18.6562 1.64844 18.75 1.69531C18.8438 1.72656 18.9375 1.74219 19.0312 1.74219C19.1719 1.74219 19.2812 1.65625 19.3594 1.48438C19.4375 1.3125 19.5156 1.02344 19.5938 0.617188C19.6562 0.273437 19.7266 0.101562 19.8047 0.101562C19.8828 0.101562 19.9219 0.304688 19.9219 0.710938C19.9219 0.898438 19.9062 1.10938 19.875 1.34375C19.8438 1.5625 19.7891 1.76562 19.7109 1.95312C19.6484 2.14062 19.5547 2.29688 19.4297 2.42188C19.3047 2.54687 19.1562 2.60938 18.9844 2.60938C18.7969 2.60938 18.6328 2.57031 18.4922 2.49219C18.3516 2.41406 18.2578 2.35937 18.2109 2.32812C18.1328 2.5 17.9766 2.6875 17.7422 2.89062C17.5234 3.07812 17.2656 3.17188 16.9688 3.17188C16.8125 3.17188 16.6719 3.10156 16.5469 2.96094C16.4219 2.82031 16.3594 2.55469 16.3594 2.16406C16.3594 1.80469 16.4375 1.5 16.5938 1.25C16.7656 1 16.9141 0.875 17.0391 0.875ZM4.61719 10.5547C4.47656 10.6641 4.28125 10.8125 4.03125 11C3.78125 11.1719 3.52344 11.3516 3.25781 11.5391C2.99219 11.7266 2.74219 11.8984 2.50781 12.0547C2.28906 12.1953 2.13281 12.2812 2.03906 12.3125C1.96094 12.3594 1.875 12.4375 1.78125 12.5469C1.70312 12.6406 1.66406 12.7188 1.66406 12.7812C1.66406 12.8594 1.82812 12.9297 2.15625 12.9922C2.48438 13.0391 2.8125 13.0625 3.14062 13.0625C3.28125 13.0625 3.42969 13.0547 3.58594 13.0391C3.74219 13.0078 3.89844 12.9688 4.05469 12.9219C4.21094 12.875 4.34375 12.8281 4.45312 12.7812C4.57812 12.7188 4.67188 12.6484 4.73438 12.5703C4.73438 12.3047 4.72656 12.0469 4.71094 11.7969C4.69531 11.5469 4.6875 11.2734 4.6875 10.9766V10.6016L4.61719 10.5547ZM25.875 2.70312C25.8594 2.73437 25.8359 2.79688 25.8047 2.89062C25.7734 2.96875 25.7422 3.03125 25.7109 3.07812C25.6797 3.125 25.625 3.21094 25.5469 3.33594C25.4688 3.44531 25.3594 3.57812 25.2188 3.73438C24.3438 4 23.4688 4.33594 22.5938 4.74219C21.7188 5.14844 20.8594 5.57031 20.0156 6.00781V5.86719C20.1094 5.72656 20.2188 5.57813 20.3438 5.42188C20.4844 5.25 20.5859 5.14062 20.6484 5.09375C20.8359 4.9375 21.1641 4.73438 21.6328 4.48438C22.1016 4.23437 22.6016 3.98438 23.1328 3.73438C23.6797 3.48437 24.2031 3.26562 24.7031 3.07812C25.2188 2.875 25.6094 2.75 25.875 2.70312ZM9 26.9141C8.98438 26.9453 8.96094 27.0078 8.92969 27.1016C8.89844 27.1797 8.86719 27.2422 8.83594 27.2891C8.80469 27.3359 8.75 27.4219 8.67188 27.5469C8.59375 27.6562 8.48438 27.7891 8.34375 27.9453C7.46875 28.2109 6.59375 28.5469 5.71875 28.9531C4.84375 29.3594 3.98438 29.7812 3.14062 30.2188V30.0781C3.23438 29.9375 3.34375 29.7891 3.46875 29.6328C3.60938 29.4609 3.71094 29.3516 3.77344 29.3047C3.96094 29.1484 4.28906 28.9453 4.75781 28.6953C5.22656 28.4453 5.72656 28.1953 6.25781 27.9453C6.80469 27.6953 7.32812 27.4766 7.82812 27.2891C8.34375 27.0859 8.73438 26.9609 9 26.9141ZM2.55469 20.9844C2.69531 21.1562 2.92188 21.2422 3.23438 21.2422C3.48438 21.2422 3.75781 21.2188 4.05469 21.1719C4.36719 21.1094 4.70312 21.0156 5.0625 20.8906C5.01562 20.6719 4.96094 20.3906 4.89844 20.0469C4.85156 19.6875 4.82812 19.3516 4.82812 19.0391H4.75781C4.64844 19.1797 4.48438 19.3359 4.26562 19.5078C4.0625 19.6641 3.84375 19.8281 3.60938 20C3.375 20.1719 3.15625 20.3438 2.95312 20.5156C2.76562 20.6719 2.63281 20.8281 2.55469 20.9844ZM19.3594 26.0469L20.7188 27.0078L20.0391 28.4375L18.6562 27.4766L19.3594 26.0469ZM5.36719 24.2422C5.35156 24.2891 5.32812 24.3516 5.29688 24.4297C5.26562 24.5078 5.23438 24.5703 5.20312 24.6172C5.17188 24.6641 5.11719 24.75 5.03906 24.875C4.96094 24.9844 4.85156 25.1172 4.71094 25.2734C4.17969 25.4297 3.64844 25.625 3.11719 25.8594C2.58594 26.0781 2.0625 26.3125 1.54688 26.5625C1.57812 26.4531 1.64844 26.2969 1.75781 26.0938C1.83594 25.9844 1.90625 25.8906 1.96875 25.8125C2.03125 25.7188 2.09375 25.6484 2.15625 25.6016C2.26562 25.5078 2.46094 25.3906 2.74219 25.25C3.03906 25.1094 3.35156 24.9688 3.67969 24.8281C4.00781 24.6875 4.32812 24.5625 4.64062 24.4531C4.95312 24.3438 5.19531 24.2734 5.36719 24.2422ZM17.0859 26.4688L18.4688 27.4062L17.7656 28.8359L16.4062 27.8984L17.0859 26.4688ZM26.1328 25.7422C26.1328 25.8672 26.0859 25.9922 25.9922 26.1172C25.9609 26.1641 25.9062 26.25 25.8281 26.375C25.75 26.4844 25.6484 26.6172 25.5234 26.7734C25.0234 26.9297 24.5234 27.125 24.0234 27.3594C23.5391 27.5781 23.0469 27.8125 22.5469 28.0625C22.5781 27.9531 22.6484 27.7969 22.7578 27.5938C22.8828 27.3594 23.0078 27.1953 23.1328 27.1016C23.2422 27.0078 23.4297 26.8906 23.6953 26.75C23.9609 26.6094 24.25 26.4688 24.5625 26.3281C24.875 26.1875 25.1719 26.0625 25.4531 25.9531C25.75 25.8438 25.9766 25.7734 26.1328 25.7422ZM10.5234 31.4141C10.5234 31.2578 10.4844 31.0938 10.4062 30.9219C10.3281 30.75 10.2188 30.6016 10.0781 30.4766C9.95312 30.3516 9.80469 30.25 9.63281 30.1719C9.47656 30.0781 9.3125 30.0312 9.14062 30.0312C8.875 30.0312 8.625 30.1641 8.39062 30.4297C8.42188 30.5391 8.48438 30.625 8.57812 30.6875C8.6875 30.7656 8.8125 30.8594 8.95312 30.9688C9.09375 31.0625 9.24219 31.1562 9.39844 31.25C9.55469 31.3438 9.70312 31.4219 9.84375 31.4844C9.98438 31.5469 10.1172 31.5781 10.2422 31.5781C10.3672 31.5781 10.4453 31.5703 10.4766 31.5547C10.5078 31.5234 10.5234 31.4766 10.5234 31.4141ZM32.2266 27.7578C32.0234 27.3828 31.8047 27.1953 31.5703 27.1953C31.3672 27.1953 31.1719 27.2734 30.9844 27.4297C30.8125 27.5859 30.6953 27.7734 30.6328 27.9922C30.8359 28.1641 31.1094 28.25 31.4531 28.25C31.8125 28.25 32.0703 28.0859 32.2266 27.7578Z" fill="url(#paint0_linear_23_264)"/>
</g>
<defs>
<linearGradient id="paint0_linear_23_264" x1="15.375" y1="14.2561" x2="14.8566" y2="28.9207" gradientUnits="userSpaceOnUse">
<stop stop-color="#0078FF"/>
<stop offset="1" stop-color="#0064D7"/>
</linearGradient>
<clipPath id="clip0_23_264">
<rect width="36" height="36" fill="white"/>
</clipPath>
</defs>
</svg>
