<svg width="24" height="24" viewBox="0 0 24 24" fill="none" xmlns="http://www.w3.org/2000/svg">
<path d="M19 5C19 4.44772 18.5523 4 18 4L5 4C4.44772 4 4 4.44771 4 5C4 5.55228 4.44772 6 5 6L18 6C18.5523 6 19 5.55228 19 5Z" fill="#0B1C3F"/>
<path d="M19 12C19 11.4477 18.5523 11 18 11L5 11C4.44772 11 4 11.4477 4 12C4 12.5523 4.44772 13 5 13L18 13C18.5523 13 19 12.5523 19 12Z" fill="#0B1C3F"/>
<path d="M19 19C19 18.4477 18.5523 18 18 18L5 18C4.44772 18 4 18.4477 4 19C4 19.5523 4.44772 20 5 20L18 20C18.5523 20 19 19.5523 19 19Z" fill="#0B1C3F"/>
</svg>
